<?xml version="1.0" encoding="iso-8859-1"?>
<!-- Uploaded to: SVG Repo, www.svgrepo.com, Generator: SVG Repo Mixer Tools -->
<svg height="800px" width="800px" version="1.1" id="Layer_1" xmlns="http://www.w3.org/2000/svg" xmlns:xlink="http://www.w3.org/1999/xlink" 
	 viewBox="0 0 512 512" xml:space="preserve">
<path style="fill:#894BA2;" d="M176.786,29.257c-41.044,0-74.436,33.393-74.436,74.436s33.393,74.436,74.436,74.436
	s74.436-33.393,74.436-74.436S217.83,29.257,176.786,29.257z"/>
<path style="fill:#763794;" d="M176.786,29.257c-5.943,0-11.716,0.72-17.261,2.042c32.745,7.808,57.176,37.293,57.176,72.395
	s-24.431,64.586-57.176,72.395c5.543,1.322,11.318,2.042,17.261,2.042c41.044,0,74.436-33.393,74.436-74.436
	S217.83,29.257,176.786,29.257z"/>
<path style="fill:#F77935;" d="M223.091,198.658c-69.015,0-125.163,56.148-125.163,125.164s56.148,125.162,125.163,125.162
	s125.163-56.148,125.163-125.162S292.107,198.658,223.091,198.658z"/>
<path style="fill:#D9510D;" d="M223.091,198.658c-5.562,0-11.039,0.37-16.411,1.077c61.288,8.063,108.751,60.634,108.751,124.087
	S267.968,439.846,206.68,447.909c5.372,0.707,10.849,1.077,16.411,1.077c69.015,0,125.163-56.148,125.163-125.162
	S292.107,198.658,223.091,198.658z"/>
<path style="fill:#00D9C0;" d="M146.467,198.658c-26.764,0-48.539,21.775-48.539,48.539s21.775,48.539,48.539,48.539
	s48.539-21.775,48.539-48.539C195.006,220.433,173.23,198.658,146.467,198.658z"/>
<path style="fill:#1EA29F;" d="M146.467,198.658c-5.926,0-11.604,1.071-16.858,3.024c18.478,6.866,31.681,24.676,31.681,45.515
	c0,20.838-13.203,38.649-31.681,45.515c5.254,1.952,10.933,3.024,16.858,3.024c26.764,0,48.539-21.775,48.539-48.539
	C195.006,220.433,173.23,198.658,146.467,198.658z"/>
<path style="fill:#3FC8F2;" d="M339.017,323.363c-33.014,0-59.872,26.859-59.872,59.874s26.858,59.874,59.872,59.874
	s59.874-26.859,59.874-59.874S372.032,323.363,339.017,323.363z"/>
<path style="fill:#0DAACE;" d="M339.017,323.363c-5.575,0-10.967,0.782-16.09,2.213c25.222,7.049,43.783,30.219,43.783,57.66
	c0,27.44-18.561,50.611-43.783,57.659c5.123,1.431,10.516,2.215,16.09,2.215c33.014,0,59.874-26.859,59.874-59.874
	C398.891,350.223,372.032,323.363,339.017,323.363z"/>
<path style="fill:#FFDB56;" d="M348.876,106.532c-56.194,0-101.911,45.718-101.911,101.911s45.718,101.911,101.911,101.911
	s101.911-45.718,101.911-101.911S405.07,106.532,348.876,106.532z"/>
<path style="fill:#FBA806;" d="M348.876,106.532c-6.177,0-12.226,0.554-18.102,1.611c47.588,8.567,83.808,50.283,83.808,100.3
	s-36.22,91.734-83.808,100.299c5.876,1.058,11.926,1.611,18.102,1.611c56.194,0,101.911-45.718,101.911-101.911
	S405.07,106.532,348.876,106.532z"/>
<path style="fill:#808080;" d="M502.998,512H9.002c-4.662,0-8.44-3.778-8.44-8.44V8.44C0.563,3.778,4.34,0,9.002,0
	s8.44,3.778,8.44,8.44v486.681h485.556c4.662,0,8.44,3.778,8.44,8.44S507.66,512,502.998,512z"/>
</svg>